HIERARCHY
ROOT root
{
	OFFSET	0	13.1	24.9
	CHANNELS 6  Xposition Yposition Zposition Xrotation Yrotation Zrotation
	JOINT spine_1
	{
		OFFSET	0	9.99999	0
		CHANNELS 3  Xrotation Yrotation Zrotation
		JOINT spine_2
		{
			OFFSET	0	112	-10
			CHANNELS 3  Xrotation Yrotation Zrotation
			JOINT spine_3
			{
				OFFSET	0	206.5	19.3
				CHANNELS 3  Xrotation Yrotation Zrotation
				JOINT spine_4
				{
					OFFSET	0	110.4	14.6
					CHANNELS 3  Xrotation Yrotation Zrotation
					JOINT neck_1
					{
						OFFSET	0	71.8	-50.3
						CHANNELS 3  Xrotation Yrotation Zrotation
						JOINT neck_2
						{
							OFFSET	0	86.2	-25.8
							CHANNELS 3  Xrotation Yrotation Zrotation
							JOINT head_ee
							{
								OFFSET	0	179.8	-8.7
								CHANNELS 3  Xrotation Yrotation Zrotation
								End Site
								{
									OFFSET	1	0	0
								}
							}
						}
					}
					JOINT left_clavicle
					{
						OFFSET	-43.2	22.4	-70.8
						CHANNELS 3  Xrotation Yrotation Zrotation
						JOINT left_shoulder
						{
							OFFSET	-93.9	-5.79999	48.7
							CHANNELS 3  Xrotation Yrotation Zrotation
							JOINT left_elbow
							{
								OFFSET	-291.4	-30.8	15.2
								CHANNELS 3  Xrotation Yrotation Zrotation
								JOINT left_lowarm_twist
								{
									OFFSET	-110.7	-3.89999	13.6
									CHANNELS 3  Xrotation Yrotation Zrotation
									JOINT left_hand
									{
										OFFSET	-110.7	-3.89999	13.6
										CHANNELS 3  Xrotation Yrotation Zrotation
										JOINT left_ee
										{
											OFFSET	-80.8	-5.10001	12.1
											CHANNELS 3  Xrotation Yrotation Zrotation
											End Site
											{
												OFFSET	1	0	0
											}
										}
									}
								}
							}
						}
					}
					JOINT right_clavicle
					{
						OFFSET	43.2	22.4	-70.8
						CHANNELS 3  Xrotation Yrotation Zrotation
						JOINT right_shoulder
						{
							OFFSET	93.9	-5.79999	48.7
							CHANNELS 3  Xrotation Yrotation Zrotation
							JOINT right_elbow
							{
								OFFSET	291.4	-30.8	15.2
								CHANNELS 3  Xrotation Yrotation Zrotation
								JOINT right_lowarm_twist
								{
									OFFSET	110.7	-3.89999	13.6
									CHANNELS 3  Xrotation Yrotation Zrotation
									JOINT right_hand
									{
										OFFSET	110.7	-3.89999	13.6
										CHANNELS 3  Xrotation Yrotation Zrotation
										JOINT right_ee
										{
											OFFSET	80.8	-5.10001	12.1
											CHANNELS 3  Xrotation Yrotation Zrotation
											End Site
											{
												OFFSET	1	0	0
											}
										}
									}
								}
							}
						}
					}
				}
			}
		}
	}
	JOINT left_hip
	{
		OFFSET	-82.8	-127.5	0.300001
		CHANNELS 3  Xrotation Yrotation Zrotation
		JOINT left_knee
		{
			OFFSET	-28.2	-396.7	2.2
			CHANNELS 3  Xrotation Yrotation Zrotation
			JOINT left_ankle
			{
				OFFSET	-11.7	-411.3	35.4
				CHANNELS 3  Xrotation Yrotation Zrotation
				JOINT left_toes
				{
					OFFSET	0	-60	-88.6
					CHANNELS 3  Xrotation Yrotation Zrotation
					JOINT left_foot_ee
					{
						OFFSET	-22.5	-16.5	-42.2
						CHANNELS 3  Xrotation Yrotation Zrotation
						End Site
						{
							OFFSET	1	0	0
						}
					}
				}
			}
		}
	}
	JOINT right_hip
	{
		OFFSET	82.8	-127.5	0.300001
		CHANNELS 3  Xrotation Yrotation Zrotation
		JOINT right_knee
		{
			OFFSET	28.2	-396.7	2.2
			CHANNELS 3  Xrotation Yrotation Zrotation
			JOINT right_ankle
			{
				OFFSET	11.7	-411.3	35.4
				CHANNELS 3  Xrotation Yrotation Zrotation
				JOINT right_toes
				{
					OFFSET	0	-60	-88.6
					CHANNELS 3  Xrotation Yrotation Zrotation
					JOINT right_foot_ee
					{
						OFFSET	22.5	-16.5	-42.2
						CHANNELS 3  Xrotation Yrotation Zrotation
						End Site
						{
							OFFSET	1	0	0
						}
					}
				}
			}
		}
	}
}
MOTION
Frames: 11
Frame Time: 0.02
4038.03 754.308 -300.884 -0.486177 51.1114 7.05904 0.00505848 0.438311 1.43168 0.00613225 0.346331 1.45666 0.0156786 0.0328958 1.4969 0.0126522 0.268864 1.47293 3.01941 2.53782 -17.2637 4.57654 19.1632 -19.5 -0.0 0.0 -0.0 1.09887 7.57912 2.85252 12.9026 -15.8761 73.1923 0.191496 -5.41909 0.0090627 16.9437 0.282703 -2.13807 2.87968 -7.68815 16.3963 -0.0 0.0 -0.0 -3.11048 28.8601 10.1245 14.4566 56.7682 -93.8022 0.729086 19.8581 -0.127628 11.6365 -0.262445 1.46074 3.98947 22.6834 -16.7082 0.0 0.0 0.0 9.05597 -8.92096 -1.92873 -15.9732 0.321854 2.4222 17.4319 25.4458 -2.53245 7.77275 -0.0 -0.0 -0.0 0.0 -0.0 1.62559 -13.5412 -10.7308 6.66885 0.331473 0.968747 1.29037 -3.9057 0.188811 -18.8087 0.0 0.0 0.0 0.0 0.0 
4031.89 755.934 -298.683 -1.31378 50.6261 7.91021 0.160778 0.363962 1.24512 0.161596 0.284001 1.26575 0.168382 0.0154664 1.29712 0.166102 0.220112 1.27841 3.02391 2.51587 -16.6939 4.48172 18.6373 -18.8278 -0.0 0.0 -0.0 2.15194 8.94748 4.82139 12.5435 -16.0015 73.6041 0.194412 -5.50111 0.00934016 16.8415 0.282905 -2.12502 2.66368 -7.48432 14.9723 -0.0 0.0 -0.0 -3.15302 28.9674 10.2296 14.2361 58.6434 -93.9299 0.738139 20.085 -0.13072 11.248 -0.2585 1.41128 3.97772 22.3848 -16.7927 0.0 0.0 0.0 8.80976 -10.7137 -1.49469 -14.5497 0.320737 2.2038 20.0047 26.152 -2.8886 9.8005 -0.0 -0.0 -0.0 0.0 -0.0 1.41553 -13.5036 -10.8511 6.84109 0.341521 0.993238 1.1155 -3.66293 0.163352 -18.652 0.0 0.0 0.0 0.0 0.0 
4029.82 760.13 -303.313 -1.0522 50.2733 8.52719 0.278026 0.295792 1.05598 0.278618 0.228002 1.07266 0.283228 0.00289737 1.09661 0.281592 0.17604 1.0824 3.12021 2.46831 -16.2619 4.50783 18.1982 -18.3453 -0.0 0.0 -0.0 2.82399 9.82442 6.04575 12.3779 -16.097 73.804 0.198266 -5.60946 0.00971318 16.7789 0.283018 -2.11703 2.50827 -7.32835 13.9574 -0.0 0.0 -0.0 -3.13391 29.0449 10.1952 13.9574 60.0559 -93.9721 0.744604 20.2467 -0.132949 10.9679 -0.255447 1.37564 3.97648 22.1881 -16.8922 0.0 0.0 0.0 8.64447 -11.9737 -1.2095 -13.5897 0.316921 2.05657 21.8219 26.639 -3.13649 11.2732 -0.0 -0.0 -0.0 0.0 -0.0 1.42924 -13.4987 -10.7765 7.01927 0.351994 1.01854 0.988853 -3.49598 0.144888 -18.5415 0.0 0.0 0.0 0.0 0.0 
4023.78 762.707 -298.331 -2.37094 50.0268 8.93493 0.619685 0.244836 0.900137 0.620117 0.187065 0.913891 0.623301 0.000964456 0.932838 0.622117 0.14827 0.92098 3.19295 2.43355 -15.9197 4.52627 17.8544 -17.9623 -0.0 0.0 -0.0 3.04196 10.4117 6.45173 12.3203 -16.1854 73.3893 0.201127 -5.68989 0.00999495 16.7429 0.283079 -2.11242 2.39952 -7.21809 13.2502 -0.0 0.0 -0.0 -3.11957 29.1074 10.1697 13.2866 61.1315 -93.3489 0.74537 20.2659 -0.133214 10.7626 -0.253099 1.34952 3.9753 22.05 -16.9598 0.0 0.0 0.0 8.49338 -12.8411 -0.992358 -13.0054 0.31339 1.96698 23.0869 26.9855 -3.30742 12.3225 -0.0 -0.0 -0.0 0.0 -0.0 1.39669 -13.6253 -10.8024 7.06867 0.354912 1.02555 0.8367 -3.45637 0.122649 -18.4641 0.0 0.0 0.0 0.0 0.0 
4014.69 755.618 -297.839 -3.01489 50.2922 9.50391 0.810041 0.210694 0.798096 0.810381 0.159484 0.809885 0.812771 -0.00258301 0.825433 0.811843 0.127807 0.815483 3.23825 3.64523 -13.6258 4.34739 17.9762 -15.2478 -0.0 0.0 -0.0 3.16773 11.052 6.69607 11.9357 -16.2864 73.226 0.201613 -5.70354 0.0100431 16.178 0.283654 -2.04028 2.39188 -8.15257 12.7914 -0.0 0.0 -0.0 -3.09169 28.7791 10.0747 11.8374 62.0802 -92.6892 0.737567 20.0707 -0.130524 10.473 -0.249627 1.31269 3.95312 21.7298 -16.9835 0.0 0.0 0.0 8.37261 -12.5668 -1.02215 -12.6032 0.310429 1.90535 21.7383 27.6748 -3.14635 13.5466 -0.0 -0.0 -0.0 0.0 -0.0 1.47624 -13.9991 -10.7632 7.11699 0.357771 1.0324 0.921198 -3.40713 0.135017 -18.0875 0.0 0.0 0.0 0.0 0.0 
4011.51 757.203 -299.977 -3.60306 50.4506 10.3696 0.946553 0.187026 0.725678 0.946835 0.140471 0.736108 0.948739 -0.0049674 0.749373 0.947973 0.113441 0.740754 3.25297 4.51072 -11.9875 4.21916 18.0701 -13.3132 -0.0 0.0 -0.0 3.14591 11.6259 6.68317 11.6419 -16.3544 73.1087 0.201838 -5.70986 0.0100655 15.783 0.283634 -1.98983 2.38445 -8.80691 12.4537 -0.0 0.0 -0.0 -2.99229 28.5569 9.83192 11.1686 62.7646 -92.6388 0.739491 20.1189 -0.131185 10.2663 -0.247035 1.28641 3.93814 21.5102 -17.0008 0.0 0.0 0.0 8.27843 -12.3132 -1.10149 -12.3073 0.307974 1.86 20.8446 28.1459 -3.03775 14.429 -0.0 -0.0 -0.0 0.0 -0.0 1.7056 -14.2796 -10.5414 7.14409 0.359378 1.03625 0.976546 -3.36881 0.143117 -17.8229 0.0 0.0 0.0 0.0 0.0 
4010.94 756.419 -292.272 -4.16685 50.9942 10.6899 1.08416 0.172679 0.698866 1.08442 0.127859 0.708437 1.08608 -0.0102487 0.719809 1.08537 0.103557 0.712395 3.25367 5.16867 -10.8173 4.13018 18.2091 -11.9317 -0.0 0.0 -0.0 2.78626 11.5992 6.07264 11.2331 -16.3789 72.3269 0.200393 -5.66926 0.00992226 15.5059 0.283413 -1.95444 2.37926 -9.26482 12.2165 -0.0 0.0 -0.0 -2.92293 28.4909 9.6717 10.8449 63.2485 -92.6184 0.750874 20.4032 -0.135127 10.1278 -0.245244 1.2688 3.92213 21.3305 -16.9889 0.0 0.0 0.0 8.14536 -11.9017 -1.13132 -12.1198 0.306298 1.83129 20.1988 28.3262 -2.95499 15.0484 -0.0 -0.0 -0.0 0.0 -0.0 2.08702 -14.5251 -10.248 7.16893 0.360852 1.03977 0.830359 -3.38227 0.121735 -17.6405 0.0 0.0 0.0 0.0 0.0 
4010.22 752.123 -297.443 -5.44824 51.9681 11.2929 1.19016 0.110271 0.711398 1.19044 0.0647802 0.716973 1.1913 -0.0724842 0.716235 1.19059 0.0415384 0.718694 3.22722 5.67164 -9.93832 4.04084 18.3302 -10.8902 -0.0 0.0 -0.0 2.55686 11.437 5.67536 10.6748 -16.3087 71.9336 0.19386 -5.48558 0.00928728 15.2943 0.283129 -1.92741 2.34956 -9.58677 11.8696 -0.0 0.0 -0.0 -2.94788 28.4661 9.7243 10.3644 63.6021 -92.2988 0.768638 20.8448 -0.141384 10.0383 -0.244066 1.25744 3.91315 21.2313 -16.9812 0.0 0.0 0.0 7.73002 -10.8802 -1.02318 -12.1016 0.306131 1.82851 19.7347 28.2494 -2.891 15.6703 -0.0 -0.0 -0.0 0.0 -0.0 2.59244 -14.8389 -9.79766 7.19909 0.362643 1.04404 0.652838 -3.46641 0.0957402 -17.5126 0.0 0.0 0.0 0.0 0.0 
4009.39 749.845 -296.265 -5.36191 52.6336 11.1126 1.20076 0.0486794 0.731846 1.20105 0.00201276 0.73346 1.20112 -0.137122 0.720532 1.2004 -0.0216093 0.733145 3.63842 5.5206 -8.77806 4.32517 17.0896 -9.63831 -0.0 0.0 -0.0 2.05862 9.18028 4.67467 9.19108 -14.2897 71.2606 0.192454 -5.44604 0.0091534 15.7879 0.283637 -1.99045 2.43924 -10.1598 12.234 -0.0 0.0 -0.0 -3.27617 28.2839 10.4325 9.6355 64.0024 -92.353 0.780451 21.1371 -0.145616 9.69013 -0.23931 1.21322 4.04942 22.706 -17.1025 0.0 0.0 0.0 7.81322 -7.26919 -1.14717 -12.1825 0.306869 1.84089 19.3158 27.4199 -2.81898 16.1041 -0.0 -0.0 -0.0 0.0 -0.0 2.76084 -15.0315 -9.58211 6.61962 0.328614 0.961742 1.06697 -3.22063 0.156369 -17.0824 0.0 0.0 0.0 0.0 0.0 
4006.01 746.734 -293.672 -5.43714 53.0827 10.9739 1.20774 0.0181423 0.610434 1.20795 -0.0207372 0.610352 1.20775 -0.136042 0.595359 1.20726 -0.0403108 0.609372 3.92398 5.38341 -8.01598 4.53019 16.2041 -8.81597 -0.0 0.0 -0.0 1.7455 7.52261 3.99751 8.34563 -12.9364 71.1007 0.196873 -5.57029 0.00957754 16.1251 0.283672 -2.03352 2.50541 -10.5616 12.5112 -0.0 0.0 -0.0 -3.37542 28.3663 10.6611 9.90443 64.2349 -92.7803 0.797325 21.5525 -0.151758 9.45028 -0.235877 1.18277 4.14721 23.7713 -17.1694 0.0 0.0 0.0 8.05805 -4.65192 -1.01258 -12.2094 0.307111 1.84501 18.9945 26.7989 -2.7648 16.4018 -0.0 -0.0 -0.0 0.0 -0.0 2.77849 -15.4422 -9.54266 6.20257 0.304641 0.902302 1.35808 -3.22745 0.198881 -16.749 0.0 0.0 0.0 0.0 0.0 
4005.26 748.58 -292.343 -5.57665 53.284 11.3845 1.21694 -0.0054407 0.511874 1.21709 -0.0380011 0.51049 1.21676 -0.133988 0.494057 1.21643 -0.0542805 0.509017 4.12112 5.29021 -7.4828 4.67374 15.5867 -8.23769 -0.0 0.0 -0.0 1.52494 6.30741 3.50112 7.84464 -12.0207 70.9518 0.203318 -5.75144 0.0102133 16.3566 0.283549 -2.06309 2.55274 -10.8565 12.7056 -0.0 0.0 -0.0 -3.44351 28.3589 10.8114 10.1855 64.4038 -93.1852 0.816543 22.0228 -0.158891 9.28497 -0.233437 1.1618 4.22167 24.5681 -17.2189 0.0 0.0 0.0 8.15036 -2.81948 -1.00822 -12.2291 0.307287 1.84803 18.8065 26.3064 -2.73125 16.618 -0.0 -0.0 -0.0 0.0 -0.0 3.18498 -15.77 -9.10079 6.03405 0.295077 0.878235 1.5677 -3.23505 0.22945 -16.5116 0.0 0.0 0.0 0.0 0.0 
